<?xml version="1.0" encoding="UTF-8" standalone="no"?>
<!DOCTYPE svg PUBLIC "-//W3C//DTD SVG 1.1//EN"
 "http://www.w3.org/Graphics/SVG/1.1/DTD/svg11.dtd">
<!-- Generated by graphviz version 2.43.0 (0)
 -->
<!-- Title: image Pages: 1 -->
<svg width="296pt" height="216pt"
 viewBox="0.00 0.00 295.67 216.00" xmlns="http://www.w3.org/2000/svg" xmlns:xlink="http://www.w3.org/1999/xlink">
<g id="graph0" class="graph" transform="scale(1 1) rotate(0) translate(4 212)">
<title>image</title>
<polygon fill="white" stroke="transparent" points="-4,4 -4,-212 291.67,-212 291.67,4 -4,4"/>
<g id="clust1" class="cluster">
<title>clusterSub</title>
<polygon fill="yellow" stroke="black" points="8,-117 8,-200 150,-200 150,-117 8,-117"/>
</g>
<!-- Car -->
<g id="node1" class="node">
<title>Car</title>
<polygon fill="none" stroke="black" points="16.94,-0.5 16.94,-88.5 141.06,-88.5 141.06,-0.5 16.94,-0.5"/>
<text text-anchor="middle" x="79" y="-73.3" font-family="Times,serif" font-size="14.00">Car</text>
<polyline fill="none" stroke="black" points="16.94,-66.5 141.06,-66.5 "/>
<text text-anchor="middle" x="34.27" y="-40.3" font-family="Times,serif" font-size="14.00">attr</text>
<polyline fill="none" stroke="black" points="51.6,-22.5 51.6,-66.5 "/>
<text text-anchor="middle" x="96.33" y="-51.3" font-family="Times,serif" font-size="14.00">String color</text>
<polyline fill="none" stroke="black" points="51.6,-44.5 141.06,-44.5 "/>
<text text-anchor="middle" x="96.33" y="-29.3" font-family="Times,serif" font-size="14.00">Wheel wheel</text>
<polyline fill="none" stroke="black" points="16.94,-22.5 141.06,-22.5 "/>
<text text-anchor="middle" x="79" y="-7.3" font-family="Times,serif" font-size="14.00">run()</text>
</g>
<!-- Bike -->
<g id="node2" class="node">
<title>Bike</title>
<polygon fill="none" stroke="black" points="88,-125.5 88,-191.5 142,-191.5 142,-125.5 88,-125.5"/>
<text text-anchor="middle" x="114.89" y="-176.3" font-family="Times,serif" font-size="14.00">Bike</text>
<polyline fill="none" stroke="black" points="88,-169.5 141.77,-169.5 "/>
<text text-anchor="middle" x="114.89" y="-154.3" font-family="Times,serif" font-size="14.00"> </text>
<polyline fill="none" stroke="black" points="88,-147.5 141.77,-147.5 "/>
<text text-anchor="middle" x="114.89" y="-132.3" font-family="Times,serif" font-size="14.00">slow()</text>
</g>
<!-- Bike&#45;&gt;Car -->
<g id="edge1" class="edge">
<title>Bike&#45;&gt;Car</title>
<path fill="none" stroke="black" d="M104.68,-125.41C101.97,-116.96 98.97,-107.63 96,-98.4"/>
<polygon fill="none" stroke="black" points="99.33,-97.32 92.94,-88.87 92.67,-99.46 99.33,-97.32"/>
</g>
<!-- Audi -->
<g id="node3" class="node">
<title>Audi</title>
<polygon fill="none" stroke="black" points="16,-125.5 16,-191.5 70,-191.5 70,-125.5 16,-125.5"/>
<text text-anchor="middle" x="42.77" y="-176.3" font-family="Times,serif" font-size="14.00">Audi</text>
<polyline fill="none" stroke="black" points="16,-169.5 69.54,-169.5 "/>
<text text-anchor="middle" x="42.77" y="-154.3" font-family="Times,serif" font-size="14.00"> </text>
<polyline fill="none" stroke="black" points="16,-147.5 69.54,-147.5 "/>
<text text-anchor="middle" x="42.77" y="-132.3" font-family="Times,serif" font-size="14.00">fast()</text>
</g>
<!-- Audi&#45;&gt;Car -->
<g id="edge2" class="edge">
<title>Audi&#45;&gt;Car</title>
<path fill="none" stroke="black" d="M53.32,-125.41C56.03,-116.96 59.03,-107.63 62,-98.4"/>
<polygon fill="none" stroke="black" points="65.33,-99.46 65.06,-88.87 58.67,-97.32 65.33,-99.46"/>
</g>
<!-- A -->
<g id="node4" class="node">
<title>A</title>
<polygon fill="none" stroke="black" points="160.33,-136.5 160.33,-180.5 287.67,-180.5 287.67,-136.5 160.33,-136.5"/>
<text text-anchor="middle" x="178.83" y="-154.3" font-family="Times,serif" font-size="14.00">123</text>
<polyline fill="none" stroke="black" points="197.33,-136.5 197.33,-180.5 "/>
<text text-anchor="middle" x="219.33" y="-154.3" font-family="Times,serif" font-size="14.00">2345</text>
<polyline fill="none" stroke="black" points="241.33,-136.5 241.33,-180.5 "/>
<text text-anchor="middle" x="264.5" y="-165.3" font-family="Times,serif" font-size="14.00">qqq</text>
<polyline fill="none" stroke="black" points="241.33,-158.5 287.67,-158.5 "/>
<text text-anchor="middle" x="264.5" y="-143.3" font-family="Times,serif" font-size="14.00">www</text>
</g>
</g>
</svg>
