<?xml version="1.0" encoding="UTF-8" standalone="no"?>
<!DOCTYPE svg PUBLIC "-//W3C//DTD SVG 1.1//EN"
 "http://www.w3.org/Graphics/SVG/1.1/DTD/svg11.dtd">
<!-- Generated by graphviz version 2.43.0 (0)
 -->
<!-- Title: TD Pages: 1 -->
<svg width="348pt" height="448pt"
 viewBox="0.00 0.00 348.00 448.01" xmlns="http://www.w3.org/2000/svg" xmlns:xlink="http://www.w3.org/1999/xlink">
<g id="graph0" class="graph" transform="scale(1 1) rotate(0) translate(4 444.01)">
<title>TD</title>
<polygon fill="white" stroke="transparent" points="-4,4 -4,-444.01 344,-444.01 344,4 -4,4"/>
<g id="clust1" class="cluster">
<title>cluster_s1</title>
<polygon fill="deepskyblue" stroke="black" points="8,-8 8,-88.6 166,-88.6 166,-8 8,-8"/>
<text text-anchor="middle" x="87" y="-73.4" font-family="Times,serif" font-size="14.00">附属业务1</text>
</g>
<g id="clust2" class="cluster">
<title>cluster_s2</title>
<polygon fill="deepskyblue" stroke="black" points="174,-8 174,-88.6 332,-88.6 332,-8 174,-8"/>
<text text-anchor="middle" x="253" y="-73.4" font-family="Times,serif" font-size="14.00">附属业务2</text>
</g>
<g id="clust3" class="cluster">
<title>cluster_tc</title>
<polygon fill="mintcream" stroke="black" points="38,-96.6 38,-287.6 248,-287.6 248,-96.6 38,-96.6"/>
<text text-anchor="middle" x="143" y="-272.4" font-family="Times,serif" font-size="14.00">tc服务器</text>
</g>
<!-- s0 -->
<g id="node1" class="node">
<title>s0</title>
<polygon fill="#8b8378" stroke="#8b8378" points="218.85,-384.9 160.9,-384.9 143,-440.22 125.1,-384.9 67.15,-384.9 114.03,-350.71 96.12,-295.39 143,-329.58 189.88,-295.39 171.97,-350.71 218.85,-384.9"/>
<text text-anchor="middle" x="143" y="-366.41" font-family="Times,serif" font-size="14.00">主业务</text>
</g>
<!-- s1 -->
<g id="node2" class="node">
<title>s1</title>
<polygon fill="none" stroke="black" points="15.58,-16.5 15.58,-52.5 158.42,-52.5 158.42,-16.5 15.58,-16.5"/>
<text text-anchor="middle" x="31.35" y="-30.3" font-family="Times,serif" font-size="14.00">try</text>
<polyline fill="none" stroke="black" points="47.13,-16.5 47.13,-52.5 "/>
<text text-anchor="middle" x="76.9" y="-30.3" font-family="Times,serif" font-size="14.00">confirm</text>
<polyline fill="none" stroke="black" points="106.68,-16.5 106.68,-52.5 "/>
<text text-anchor="middle" x="132.55" y="-30.3" font-family="Times,serif" font-size="14.00">cancel</text>
</g>
<!-- s0&#45;&gt;s1 -->
<g id="edge3" class="edge">
<title>s0&#45;&gt;s1:f0</title>
<path fill="none" stroke="#8b8378" d="M110.45,-353.21C84.55,-340.45 50.07,-318.66 34,-287.6 -12.24,-198.26 28.13,-160.11 30.86,-63.65"/>
<polygon fill="#8b8378" stroke="#8b8378" points="34.36,-63.55 31,-53.5 27.36,-63.45 34.36,-63.55"/>
</g>
<!-- s2 -->
<g id="node3" class="node">
<title>s2</title>
<polygon fill="none" stroke="black" points="181.58,-16.5 181.58,-52.5 324.42,-52.5 324.42,-16.5 181.58,-16.5"/>
<text text-anchor="middle" x="197.35" y="-30.3" font-family="Times,serif" font-size="14.00">try</text>
<polyline fill="none" stroke="black" points="213.13,-16.5 213.13,-52.5 "/>
<text text-anchor="middle" x="242.9" y="-30.3" font-family="Times,serif" font-size="14.00">confirm</text>
<polyline fill="none" stroke="black" points="272.68,-16.5 272.68,-52.5 "/>
<text text-anchor="middle" x="298.55" y="-30.3" font-family="Times,serif" font-size="14.00">cancel</text>
</g>
<!-- s0&#45;&gt;s2 -->
<g id="edge4" class="edge">
<title>s0&#45;&gt;s2:f0</title>
<path fill="none" stroke="#8b8378" d="M175.66,-353.27C201.62,-340.54 236.12,-318.76 252,-287.6 290.54,-211.96 289.16,-172.92 252,-96.6 240.21,-72.39 207.51,-81.11 199.03,-63.6"/>
<polygon fill="#8b8378" stroke="#8b8378" points="202.4,-62.62 197,-53.5 195.54,-63.99 202.4,-62.62"/>
</g>
<!-- tc -->
<g id="node4" class="node">
<title>tc</title>
<polygon fill="none" stroke="black" points="95.72,-196.3 95.72,-251.5 190.28,-251.5 190.28,-196.3 95.72,-196.3"/>
<text text-anchor="middle" x="143" y="-236.3" font-family="Times,serif" font-size="14.00">业务1try结果</text>
<polyline fill="none" stroke="black" points="95.72,-223.9 190.28,-223.9 "/>
<text text-anchor="middle" x="143" y="-208.7" font-family="Times,serif" font-size="14.00">业务2try结果</text>
</g>
<!-- s0&#45;&gt;tc -->
<g id="edge5" class="edge">
<title>s0&#45;&gt;tc:n</title>
<path fill="none" stroke="#8b8378" stroke-dasharray="5,2" d="M143,-329.61C143,-310.23 143,-285.84 143,-262.94"/>
<polygon fill="#8b8378" stroke="#8b8378" points="146.5,-262.9 143,-252.9 139.5,-262.9 146.5,-262.9"/>
</g>
<!-- success -->
<g id="node5" class="node">
<title>success</title>
<polygon fill="chartreuse" stroke="chartreuse" points="90,-159.9 46,-132.2 90,-104.5 134,-132.2 90,-159.9"/>
<text text-anchor="middle" x="90" y="-130.8" font-family="Times,serif" font-size="14.00">成功</text>
</g>
<!-- tc&#45;&gt;success -->
<g id="edge1" class="edge">
<title>tc&#45;&gt;success</title>
<path fill="none" stroke="chartreuse" d="M127.1,-195.99C120.67,-185.1 113.24,-172.53 106.72,-161.51"/>
<polygon fill="chartreuse" stroke="chartreuse" points="109.61,-159.51 101.51,-152.68 103.59,-163.07 109.61,-159.51"/>
</g>
<!-- fail -->
<g id="node6" class="node">
<title>fail</title>
<polygon fill="crimson" stroke="crimson" points="196,-159.9 152,-132.2 196,-104.5 240,-132.2 196,-159.9"/>
<text text-anchor="middle" x="196" y="-130.8" font-family="Times,serif" font-size="14.00">失败</text>
</g>
<!-- tc&#45;&gt;fail -->
<g id="edge2" class="edge">
<title>tc&#45;&gt;fail</title>
<path fill="none" stroke="crimson" d="M158.9,-195.99C165.33,-185.1 172.76,-172.53 179.28,-161.51"/>
<polygon fill="crimson" stroke="crimson" points="182.41,-163.07 184.49,-152.68 176.39,-159.51 182.41,-163.07"/>
</g>
<!-- success&#45;&gt;s1 -->
<g id="edge7" class="edge">
<title>success&#45;&gt;s1:f1</title>
<path fill="none" stroke="chartreuse" d="M84.03,-107.91C81.23,-95.32 78.29,-79.2 77.33,-63.62"/>
<polygon fill="chartreuse" stroke="chartreuse" points="80.82,-63.38 77,-53.5 73.83,-63.61 80.82,-63.38"/>
</g>
<!-- success&#45;&gt;s2 -->
<g id="edge6" class="edge">
<title>success&#45;&gt;s2:f1</title>
<path fill="none" stroke="chartreuse" d="M109.34,-116.62C119.05,-109.82 131.23,-102.04 143,-96.6 183.49,-77.87 234.31,-98.18 242.01,-63.55"/>
<polygon fill="chartreuse" stroke="chartreuse" points="245.5,-63.8 243,-53.5 238.53,-63.11 245.5,-63.8"/>
</g>
<!-- fail&#45;&gt;s1 -->
<g id="edge9" class="edge">
<title>fail&#45;&gt;s1:f2</title>
<path fill="none" stroke="crimson" d="M175.02,-117.56C158.99,-105.53 138.84,-86.38 134.05,-63.52"/>
<polygon fill="crimson" stroke="crimson" points="137.53,-63.08 133,-53.5 130.57,-63.81 137.53,-63.08"/>
</g>
<!-- fail&#45;&gt;s2 -->
<g id="edge8" class="edge">
<title>fail&#45;&gt;s2:f2</title>
<path fill="none" stroke="crimson" d="M217.34,-117.71C241.38,-102.23 278.96,-77.08 293.24,-62.38"/>
<polygon fill="crimson" stroke="crimson" points="296.49,-63.79 299,-53.5 290.62,-59.98 296.49,-63.79"/>
</g>
</g>
</svg>
